<svg width="22" height="22" viewBox="0 0 22 22" fill="none" xmlns="http://www.w3.org/2000/svg">
<path d="M11.0027 0H10.9973C4.93213 0 0 4.9335 0 11C0 13.4062 0.7755 15.6365 2.09413 17.4474L0.72325 21.5339L4.95138 20.1823C6.69075 21.3345 8.76562 22 11.0027 22C17.0679 22 22 17.0651 22 11C22 4.93488 17.0679 0 11.0027 0Z" fill="#4CAF50"/>
<path d="M17.4034 15.5335C17.138 16.2829 16.0848 16.9044 15.2447 17.0859C14.6699 17.2082 13.9192 17.3059 11.3919 16.2581C8.15929 14.9189 6.07754 11.634 5.91529 11.4209C5.75991 11.2077 4.60904 9.6815 4.60904 8.103C4.60904 6.5245 5.41066 5.75588 5.73379 5.42588C5.99916 5.155 6.43779 5.03125 6.85854 5.03125C6.99466 5.03125 7.11704 5.03813 7.22704 5.04363C7.55017 5.05738 7.71241 5.07663 7.92554 5.58675C8.19092 6.22613 8.83717 7.80463 8.91417 7.96688C8.99254 8.12913 9.07092 8.34913 8.96092 8.56225C8.85779 8.78225 8.76704 8.87987 8.60479 9.06687C8.44254 9.25387 8.28854 9.39687 8.12629 9.59762C7.97779 9.77225 7.81004 9.95925 7.99704 10.2824C8.18404 10.5986 8.83029 11.6532 9.78179 12.5002C11.0097 13.5934 12.0052 13.9426 12.3613 14.0911C12.6267 14.2011 12.9429 14.175 13.1368 13.9688C13.3829 13.7034 13.6868 13.2634 13.9962 12.8302C14.2162 12.5195 14.4939 12.481 14.7854 12.591C15.0824 12.6941 16.654 13.471 16.9772 13.6319C17.3003 13.7941 17.5134 13.8711 17.5918 14.0072C17.6688 14.1434 17.6688 14.7827 17.4034 15.5335Z" fill="#FAFAFA"/>
</svg>
