<svg width="45" height="45" viewBox="0 0 45 45" fill="none" xmlns="http://www.w3.org/2000/svg">
  <g filter="url(#filter0_d)">
    <circle cx="22.5" cy="22.5" r="17.5" fill="white"/>
  </g>
  <g clip-path="url(#clip0)">
    <path
      d="M24.047 28.9093L23.3532 29.6031C23.0595 29.8968 22.5845 29.8968 22.2938 29.6031L16.2188 23.5312C15.9251 23.2375 15.9251 22.7625 16.2188 22.4718L22.2938 16.3968C22.5876 16.1031 23.0626 16.1031 23.3532 16.3968L24.047 17.0906C24.3438 17.3875 24.3376 17.8718 24.0345 18.1625L20.2688 21.75H29.2501C29.6657 21.75 30.0001 22.0843 30.0001 22.5V23.5C30.0001 23.9156 29.6657 24.25 29.2501 24.25H20.2688L24.0345 27.8375C24.3407 28.1281 24.347 28.6125 24.047 28.9093Z"
      fill="#8100E6"/>
  </g>
  <defs>
    <filter id="filter0_d" x="0" y="0" width="45" height="45" filterUnits="userSpaceOnUse"
            color-interpolation-filters="sRGB">
      <feFlood flood-opacity="0" result="BackgroundImageFix"/>
      <feColorMatrix in="SourceAlpha" type="matrix" values="0 0 0 0 0 0 0 0 0 0 0 0 0 0 0 0 0 0 127 0"/>
      <feOffset/>
      <feGaussianBlur stdDeviation="2.5"/>
      <feColorMatrix type="matrix" values="0 0 0 0 0 0 0 0 0 0 0 0 0 0 0 0 0 0 0.25 0"/>
      <feBlend mode="normal" in2="BackgroundImageFix" result="effect1_dropShadow"/>
      <feBlend mode="normal" in="SourceGraphic" in2="effect1_dropShadow" result="shape"/>
    </filter>
    <clipPath id="clip0">
      <rect width="14" height="16" fill="white" transform="translate(16 15)"/>
    </clipPath>
  </defs>
</svg>
