<svg width="19" height="19" viewBox="0 0 19 19" fill="none" xmlns="http://www.w3.org/2000/svg">
<path d="M12.6122 13.4387L14.2222 11.8287C14.439 11.6146 14.7134 11.468 15.0119 11.4068C15.3105 11.3455 15.6204 11.3723 15.9041 11.4837L17.8662 12.2672C18.1529 12.3835 18.3987 12.5821 18.5726 12.8379C18.7466 13.0938 18.8409 13.3953 18.8437 13.7047V17.2984C18.8421 17.5089 18.7978 17.7168 18.7137 17.9097C18.6296 18.1026 18.5072 18.2764 18.3541 18.4208C18.201 18.5652 18.0203 18.6771 17.8228 18.7498C17.6253 18.8225 17.4152 18.8544 17.205 18.8437C3.4553 17.9884 0.680927 6.34469 0.156239 1.88844C0.131883 1.6696 0.154137 1.44809 0.221537 1.23848C0.288936 1.02886 0.399954 0.835894 0.547288 0.672265C0.694621 0.508637 0.87493 0.378059 1.07635 0.28912C1.27778 0.200181 1.49575 0.154898 1.71593 0.156249H5.18749C5.49728 0.157166 5.79971 0.250741 6.05588 0.424939C6.31205 0.599136 6.51025 0.84599 6.62499 1.13375L7.40843 3.09594C7.52361 3.37845 7.553 3.68865 7.49292 3.98777C7.43284 4.28689 7.28595 4.56168 7.07061 4.77781L5.46061 6.38781C5.46061 6.38781 6.3878 12.6625 12.6122 13.4387Z" fill="#8100E6"/>
</svg>
