<svg width="21" height="22" viewBox="0 0 21 22" fill="none" xmlns="http://www.w3.org/2000/svg">
<path d="M9.84063 0.0030578C8.09412 0.0243729 4.33924 0.314534 2.23906 2.26246C0.676853 3.8274 0.131406 6.14113 0.0674757 9.00217C0.0144272 11.8529 -0.0495028 17.2064 5.05471 18.6641V20.8843C5.05471 20.8843 5.02275 21.7727 5.60356 21.9549C6.31903 22.1839 6.72642 21.5004 7.40653 20.7661L8.67493 19.3159C12.1673 19.6095 14.8422 18.933 15.1502 18.8326C15.8589 18.6036 19.8505 18.0879 20.5027 12.7337C21.1719 7.20413 20.1769 3.72014 18.3808 2.1442H18.3699C17.8278 1.63951 15.6494 0.0346867 10.7826 0.0168095C10.7826 0.0168095 10.4214 -0.00725597 9.84063 0.0030578ZM9.90048 1.55769C10.3963 1.55425 10.6976 1.57556 10.6976 1.57556C14.817 1.58657 16.7832 2.84003 17.247 3.26221C18.7596 4.57275 19.539 7.71363 18.9684 12.3301C18.4263 16.8063 15.189 17.0895 14.5898 17.2828C14.3348 17.3653 11.9789 17.9525 9.0109 17.7592C9.0109 17.7592 6.80055 20.456 6.10956 21.1504C6.00006 21.2721 5.8722 21.3079 5.79059 21.29C5.67361 21.2611 5.63824 21.1147 5.64505 20.9139L5.66613 17.2291C1.33724 16.019 1.59228 11.4527 1.63853 9.06749C1.69157 6.68226 2.13433 4.73089 3.45238 3.40935C5.22678 1.78734 8.41513 1.56869 9.89912 1.55769H9.90048ZM10.2269 3.94223C10.1913 3.94187 10.156 3.94864 10.1229 3.96215C10.0899 3.97566 10.0598 3.99565 10.0345 4.02096C10.0091 4.04627 9.989 4.07641 9.97522 4.10963C9.96144 4.14284 9.9543 4.17849 9.95421 4.21451C9.95421 4.36853 10.078 4.49024 10.2269 4.49024C10.9013 4.47727 11.5715 4.5994 12.1989 4.84959C12.8263 5.09977 13.3985 5.47306 13.8825 5.94792C14.8707 6.9181 15.3522 8.22176 15.3706 9.92628C15.3706 10.0769 15.491 10.202 15.6433 10.202V10.191C15.7151 10.1912 15.7841 10.1627 15.8352 10.1117C15.8863 10.0607 15.9153 9.9913 15.916 9.91872C15.9491 9.11641 15.8204 8.31569 15.5378 7.56523C15.2552 6.81477 14.8246 6.13024 14.2722 5.55324C13.1956 4.48955 11.8313 3.94223 10.2269 3.94223ZM6.64208 4.57275C6.44958 4.54431 6.25324 4.58338 6.08576 4.68345H6.07147C5.68263 4.91388 5.33234 5.20513 5.03363 5.54637C4.78539 5.83653 4.65073 6.13013 4.61536 6.41272C4.59428 6.58118 4.60856 6.74964 4.65821 6.91053L4.67589 6.92154C4.95542 7.75214 5.32063 8.55111 5.76679 9.30333C6.34149 10.3601 7.04876 11.3375 7.87104 12.2111L7.89552 12.2469L7.93429 12.2758L7.95877 12.3046L7.98734 12.3294C8.85463 13.1631 9.82369 13.8815 10.871 14.4671C12.068 15.1258 12.7943 15.4373 13.2303 15.5665V15.5734C13.3582 15.6126 13.4745 15.6305 13.5914 15.6305C13.963 15.603 14.3147 15.4505 14.5905 15.1973C14.9265 14.8952 15.2114 14.5396 15.4338 14.1446V14.1377C15.6426 13.7403 15.5719 13.3642 15.2706 13.1098C14.6672 12.5766 14.0148 12.103 13.3221 11.6954C12.8583 11.441 12.387 11.5951 12.1958 11.8529L11.7885 12.372C11.5797 12.6299 11.2002 12.5941 11.2002 12.5941L11.1893 12.601C8.35936 11.8701 7.60444 8.97329 7.60444 8.97329C7.60444 8.97329 7.56907 8.5793 7.83091 8.37853L8.341 7.96323C8.58515 7.76245 8.75518 7.28664 8.49334 6.81702C8.09303 6.11579 7.62559 5.45598 7.09776 4.84709C6.98236 4.70355 6.82048 4.60588 6.64072 4.57137L6.64208 4.57275ZM10.6976 5.3896C10.3364 5.3896 10.3364 5.94104 10.701 5.94104C11.15 5.9484 11.5933 6.04517 12.0053 6.22579C12.4174 6.40642 12.7902 6.66737 13.1024 6.99373C13.3873 7.3114 13.6062 7.68364 13.7461 8.0884C13.8861 8.49315 13.9443 8.92219 13.9172 9.35009C13.9184 9.4225 13.9477 9.49155 13.9987 9.54244C14.0496 9.59333 14.1183 9.62202 14.1899 9.62237L14.2008 9.63681C14.273 9.63627 14.342 9.60705 14.3931 9.55546C14.4441 9.50386 14.473 9.43405 14.4735 9.36109C14.498 8.26851 14.162 7.35196 13.503 6.61762C12.8406 5.88328 11.9163 5.47142 10.7363 5.3896H10.6976ZM11.1444 6.87203C10.7724 6.86103 10.7581 7.42347 11.1267 7.43447C12.0231 7.48123 12.4584 7.93916 12.5155 8.88115C12.5167 8.95266 12.5456 9.02083 12.596 9.07107C12.6463 9.12132 12.7141 9.14965 12.7848 9.15H12.7957C12.8321 9.14842 12.8678 9.13954 12.9007 9.12386C12.9336 9.10819 12.9631 9.08604 12.9875 9.05871C13.0119 9.03138 13.0306 8.99941 13.0427 8.96468C13.0547 8.92994 13.0597 8.89313 13.0575 8.8564C12.9936 7.62837 12.3312 6.93666 11.1553 6.87272L11.1444 6.87203Z" fill="#8100E6"/>
</svg>
